<svg version="1.1" xmlns="http://www.w3.org/2000/svg" xmlns:xlink="http://www.w3.org/1999/xlink" width="200px" height="200px" viewBox="0,0,256,256"><g fill="#fef2c6" fill-rule="nonzero" stroke="none" stroke-width="1" stroke-linecap="butt" stroke-linejoin="miter" stroke-miterlimit="10" stroke-dasharray="" stroke-dashoffset="0" font-family="none" font-weight="none" font-size="none" text-anchor="none" style="mix-blend-mode: normal"><g transform="translate(0.0131,0.0014) scale(1.28,1.28)"><path d="M100,175.68c-28.60691,0.01102 -54.77526,-16.10917 -67.63344,-41.66348c-12.85819,-25.5543 -10.20846,-56.17492 6.84835,-79.14056c17.05681,-22.96564 45.60532,-34.35097 73.7851,-29.42597c2.40327,0.42121 4.15158,2.5155 4.13674,4.95536c-0.01485,2.43986 -1.78852,4.51271 -4.19674,4.90464c-19.20922,3.15079 -34.21479,18.2955 -37.18815,37.53298c-2.97336,19.23748 6.75966,38.20581 24.12126,47.00902c17.3616,8.80321 38.41518,5.44525 52.17689,-8.322v0c6.69495,-6.63896 11.11917,-15.22489 12.64,-24.53c0.39084,-2.4115 2.46706,-4.18749 4.91,-4.2v0c2.42756,0.00266 4.50246,1.74862 4.92,4.14c3.86087,22.01692 -2.21012,44.61432 -16.58487,61.73208c-14.37475,17.11775 -35.58226,27.00417 -57.93513,27.00792zM87.52,35.53c-32.43858,6.29419 -55.15279,35.70479 -53.04327,68.68097c2.10953,32.97618 28.38612,59.25277 61.3623,61.3623c32.97618,2.10953 62.38677,-20.60468 68.68097,-53.04327c-1.61161,2.16346 -3.37612,4.20869 -5.28,6.12c-21.49492,21.49492 -56.34508,21.49492 -77.84,0c-21.49492,-21.49492 -21.49492,-56.34508 0,-77.84c1.90874,-1.90664 3.95418,-3.67134 6.12,-5.28z"></path><path d="M125,105h-25c-2.02509,0.00362 -3.85238,-1.21463 -4.62784,-3.08537c-0.77546,-1.87074 -0.34593,-4.02449 1.08784,-5.45463l16.47,-16.46h-12.93c-2.76142,0 -5,-2.23858 -5,-5c0,-2.76142 2.23858,-5 5,-5h25c2.02509,-0.00362 3.85238,1.21463 4.62784,3.08537c0.77546,1.87074 0.34593,4.02449 -1.08784,5.45463l-16.47,16.46h12.93c2.76142,0 5,2.23858 5,5c0,2.76142 -2.23858,5 -5,5z"></path><path d="M170.68,59.32h-25c-2.0207,-0.00043 -3.8425,-1.2171 -4.61704,-3.08346c-0.77455,-1.86636 -0.34957,-4.01546 1.07704,-5.44654l16.47,-16.47h-12.93c-2.76142,0 -5,-2.23858 -5,-5c0,-2.76142 2.23858,-5 5,-5h25c2.02509,-0.00362 3.85238,1.21463 4.62784,3.08537c0.77546,1.87074 0.34593,4.02449 -1.08784,5.45463l-16.47,16.46h12.93c2.76142,0 5,2.23858 5,5c0,2.76142 -2.23858,5 -5,5z"></path></g></g></svg>