<svg version="1.1" xmlns="http://www.w3.org/2000/svg" xmlns:xlink="http://www.w3.org/1999/xlink" width="100%" height="100%" viewBox="0,0,256,256"><g fill-rule="nonzero" stroke="none" stroke-width="1" stroke-linecap="butt" stroke-linejoin="miter" stroke-miterlimit="10" stroke-dasharray="" stroke-dashoffset="0" font-family="none" font-weight="none" font-size="none" text-anchor="none" style="mix-blend-mode: normal"><g transform="translate(-0.08,-0.19691) scale(8,8)"><g id="Layer_53"><path d="M8,31c-0.42024,-0.0006 -0.82961,-0.13356 -1.17,-0.38c-0.59676,-0.45265 -0.91192,-1.18548 -0.83,-1.93l0.73,-8.19l-5.23,-6.16c-0.4805,-0.57159 -0.62831,-1.35232 -0.39,-2.06c0.21965,-0.68987 0.78534,-1.2138 1.49,-1.38l7.62,-1.8l4,-7c0.36215,-0.64877 1.047,-1.0508 1.79,-1.0508c0.743,0 1.42785,0.40203 1.79,1.0508l4,7.05l7.62,1.8c0.70466,0.1662 1.27035,0.69013 1.49,1.38c0.23831,0.70768 0.0905,1.48841 -0.39,2.06l-5.2,6.11l0.73,8.19c0.07064,0.75403 -0.26442,1.48886 -0.88,1.93c-0.58232,0.42115 -1.34582,0.4975 -2,0.2l-7.17,-3.24l-7.16,3.24c-0.26366,0.12014 -0.55027,0.18155 -0.84,0.18zM16.05,3l-4.3,7.43c-0.13725,0.24208 -0.36917,0.41602 -0.64,0.48l-8,1.89c-0.06,0.1 -0.07,0.16 0,0.21l5.45,6.49c0.17044,0.20321 0.25317,0.46579 0.23,0.73l-0.77,8.6c-0.09,0.17 -0.02,0.17 -0.02,0.17l7.58,-3.42c0.26077,-0.11722 0.55923,-0.11722 0.82,0l7.6,3.42c0,0 0.09,0 0.08,-0.13l-0.77,-8.6c-0.02317,-0.26421 0.05956,-0.52679 0.23,-0.73l5.46,-6.49c0.02311,-0.0438 0.02311,-0.0962 0,-0.14l-8.1,-2c-0.27083,-0.06398 -0.50275,-0.23792 -0.64,-0.48zM10.88,10z"></path></g></g></g></svg>