<svg version="1.1" xmlns="http://www.w3.org/2000/svg" xmlns:xlink="http://www.w3.org/1999/xlink" width="612px" height="612px" viewBox="0,0,256,256"><g fill="#000000" fill-rule="nonzero" stroke="none" stroke-width="1" stroke-linecap="butt" stroke-linejoin="miter" stroke-miterlimit="10" stroke-dasharray="" stroke-dashoffset="0" font-family="none" font-weight="none" font-size="none" text-anchor="none" style="mix-blend-mode: normal"><g transform="scale(0.4183,0.4183)"><g><g id="Sun"><g><path d="M104.914,306c0,-14.478 -11.75,-26.229 -26.229,-26.229h-52.456c-14.479,0 -26.229,11.751 -26.229,26.229c0,14.479 11.75,26.229 26.229,26.229h52.457c14.478,0 26.228,-11.75 26.228,-26.229zM131.143,454.629c-7.239,0 -13.796,2.938 -18.553,7.676l-34.971,34.972c-4.739,4.756 -7.676,11.313 -7.676,18.552c0,14.479 11.733,26.229 26.229,26.229c7.239,0 13.796,-2.938 18.535,-7.693l34.972,-34.972c4.756,-4.738 7.694,-11.295 7.694,-18.534c-0.001,-14.48 -11.734,-26.23 -26.23,-26.23zM306,104.914c14.496,0 26.229,-11.75 26.229,-26.229v-52.456c0,-14.479 -11.733,-26.229 -26.229,-26.229c-14.496,0 -26.229,11.75 -26.229,26.229v52.457c0,14.478 11.733,26.228 26.229,26.228zM480.857,157.372c7.239,0 13.796,-2.938 18.534,-7.676l34.972,-34.972c4.756,-4.756 7.693,-11.313 7.693,-18.552c0,-14.478 -11.732,-26.229 -26.229,-26.229c-7.238,0 -13.796,2.938 -18.552,7.694l-34.972,34.971c-4.738,4.739 -7.676,11.296 -7.676,18.535c0.002,14.478 11.734,26.229 26.23,26.229zM112.59,149.695c4.756,4.738 11.313,7.676 18.553,7.676c14.478,0 26.229,-11.75 26.229,-26.229c0,-7.239 -2.938,-13.796 -7.676,-18.552l-34.972,-34.971c-4.756,-4.739 -11.313,-7.676 -18.552,-7.676c-14.478,0 -26.229,11.75 -26.229,26.229c0,7.239 2.938,13.796 7.676,18.535zM585.771,279.771h-52.457c-14.479,0 -26.229,11.75 -26.229,26.229c0,14.479 11.75,26.229 26.229,26.229h52.457c14.479,0 26.229,-11.75 26.229,-26.229c0,-14.478 -11.75,-26.229 -26.229,-26.229zM499.409,462.305c-4.756,-4.738 -11.312,-7.676 -18.552,-7.676c-14.479,0 -26.229,11.75 -26.229,26.229c0,7.239 2.938,13.796 7.676,18.534l34.972,34.972c4.756,4.756 11.313,7.693 18.552,7.693c14.479,0 26.229,-11.75 26.229,-26.229c0,-7.238 -2.938,-13.796 -7.676,-18.552zM306,507.086c-14.496,0 -26.229,11.75 -26.229,26.229v52.457c0,14.478 11.733,26.228 26.229,26.228c14.496,0 26.229,-11.75 26.229,-26.229v-52.457c0,-14.478 -11.733,-26.228 -26.229,-26.228zM306,122.4c-101.242,0 -183.6,82.358 -183.6,183.6c0,101.242 82.358,183.6 183.6,183.6c101.242,0 183.6,-82.358 183.6,-183.6c0,-101.242 -82.358,-183.6 -183.6,-183.6zM306,437.143c-72.321,0 -131.143,-58.821 -131.143,-131.143c0,-72.321 58.822,-131.143 131.143,-131.143c72.321,0 131.143,58.822 131.143,131.143c0,72.321 -58.822,131.143 -131.143,131.143z"></path></g></g></g><g font-family="Inter, apple-system, &quot;system-ui&quot;, &quot;Helvetica Neue&quot;, &quot;Segoe UI&quot;, &quot;Fira Sans&quot;, Roboto, Oxygen, Ubuntu, &quot;Droid Sans&quot;, Arial, sans-serif" font-weight="400" font-size="16" text-anchor="start"></g><g font-family="Inter, apple-system, &quot;system-ui&quot;, &quot;Helvetica Neue&quot;, &quot;Segoe UI&quot;, &quot;Fira Sans&quot;, Roboto, Oxygen, Ubuntu, &quot;Droid Sans&quot;, Arial, sans-serif" font-weight="400" font-size="16" text-anchor="start"></g><g font-family="Inter, apple-system, &quot;system-ui&quot;, &quot;Helvetica Neue&quot;, &quot;Segoe UI&quot;, &quot;Fira Sans&quot;, Roboto, Oxygen, Ubuntu, &quot;Droid Sans&quot;, Arial, sans-serif" font-weight="400" font-size="16" text-anchor="start"></g><g font-family="Inter, apple-system, &quot;system-ui&quot;, &quot;Helvetica Neue&quot;, &quot;Segoe UI&quot;, &quot;Fira Sans&quot;, Roboto, Oxygen, Ubuntu, &quot;Droid Sans&quot;, Arial, sans-serif" font-weight="400" font-size="16" text-anchor="start"></g><g font-family="Inter, apple-system, &quot;system-ui&quot;, &quot;Helvetica Neue&quot;, &quot;Segoe UI&quot;, &quot;Fira Sans&quot;, Roboto, Oxygen, Ubuntu, &quot;Droid Sans&quot;, Arial, sans-serif" font-weight="400" font-size="16" text-anchor="start"></g><g font-family="Inter, apple-system, &quot;system-ui&quot;, &quot;Helvetica Neue&quot;, &quot;Segoe UI&quot;, &quot;Fira Sans&quot;, Roboto, Oxygen, Ubuntu, &quot;Droid Sans&quot;, Arial, sans-serif" font-weight="400" font-size="16" text-anchor="start"></g><g font-family="Inter, apple-system, &quot;system-ui&quot;, &quot;Helvetica Neue&quot;, &quot;Segoe UI&quot;, &quot;Fira Sans&quot;, Roboto, Oxygen, Ubuntu, &quot;Droid Sans&quot;, Arial, sans-serif" font-weight="400" font-size="16" text-anchor="start"></g><g font-family="Inter, apple-system, &quot;system-ui&quot;, &quot;Helvetica Neue&quot;, &quot;Segoe UI&quot;, &quot;Fira Sans&quot;, Roboto, Oxygen, Ubuntu, &quot;Droid Sans&quot;, Arial, sans-serif" font-weight="400" font-size="16" text-anchor="start"></g><g font-family="Inter, apple-system, &quot;system-ui&quot;, &quot;Helvetica Neue&quot;, &quot;Segoe UI&quot;, &quot;Fira Sans&quot;, Roboto, Oxygen, Ubuntu, &quot;Droid Sans&quot;, Arial, sans-serif" font-weight="400" font-size="16" text-anchor="start"></g><g font-family="Inter, apple-system, &quot;system-ui&quot;, &quot;Helvetica Neue&quot;, &quot;Segoe UI&quot;, &quot;Fira Sans&quot;, Roboto, Oxygen, Ubuntu, &quot;Droid Sans&quot;, Arial, sans-serif" font-weight="400" font-size="16" text-anchor="start"></g><g font-family="Inter, apple-system, &quot;system-ui&quot;, &quot;Helvetica Neue&quot;, &quot;Segoe UI&quot;, &quot;Fira Sans&quot;, Roboto, Oxygen, Ubuntu, &quot;Droid Sans&quot;, Arial, sans-serif" font-weight="400" font-size="16" text-anchor="start"></g><g font-family="Inter, apple-system, &quot;system-ui&quot;, &quot;Helvetica Neue&quot;, &quot;Segoe UI&quot;, &quot;Fira Sans&quot;, Roboto, Oxygen, Ubuntu, &quot;Droid Sans&quot;, Arial, sans-serif" font-weight="400" font-size="16" text-anchor="start"></g><g font-family="Inter, apple-system, &quot;system-ui&quot;, &quot;Helvetica Neue&quot;, &quot;Segoe UI&quot;, &quot;Fira Sans&quot;, Roboto, Oxygen, Ubuntu, &quot;Droid Sans&quot;, Arial, sans-serif" font-weight="400" font-size="16" text-anchor="start"></g><g font-family="Inter, apple-system, &quot;system-ui&quot;, &quot;Helvetica Neue&quot;, &quot;Segoe UI&quot;, &quot;Fira Sans&quot;, Roboto, Oxygen, Ubuntu, &quot;Droid Sans&quot;, Arial, sans-serif" font-weight="400" font-size="16" text-anchor="start"></g><g font-family="Inter, apple-system, &quot;system-ui&quot;, &quot;Helvetica Neue&quot;, &quot;Segoe UI&quot;, &quot;Fira Sans&quot;, Roboto, Oxygen, Ubuntu, &quot;Droid Sans&quot;, Arial, sans-serif" font-weight="400" font-size="16" text-anchor="start"></g></g></g></svg>